# xmcd CD database file generated by Grip 3.0.0
# 
# Track frame offsets:
#       182
#       10852
#       30227
#       43302
#       56355
#       79162
#       96130
#       111805
#       129382
#       141535
#       153297
#       165362
# 
# Disc length: 2489 seconds
# 
# Revision: 2
# Processed by: cddbd v1.4PL0 Copyright (c) Steve Scherf et al.
# Submitted via: Grip 3.0.0
# 
DISCID=8f09b70c
DTITLE=Fleetwood Mac - Mr.Wonderful
DYEAR=1968
DGENRE=Blues
TTITLE0=Stop Messin' Round
TTITLE1=I've Lost My Baby
TTITLE2=Rollin' Man
TTITLE3=Dust My Broom
TTITLE4=Love That Burns
TTITLE5=Doctor Brown
TTITLE6=Need Your Love Tonight
TTITLE7=If You Be My Baby
TTITLE8=Evenin' Boogie
TTITLE9=Lazy Poker Blues
TTITLE10=Coming Home
TTITLE11=Trying So Hard To Forget
EXTD=
EXTT0=
EXTT1=
EXTT2=
EXTT3=
EXTT4=
EXTT5=
EXTT6=
EXTT7=
EXTT8=
EXTT9=
EXTT10=
EXTT11=
PLAYORDER=
